# xmcd
#
# Track frame offsets:
#	183
#	10115
#	21463
#	32338
#	44710
#	57008
#	67795
#	80258
#	90073
#	100468
#	112608
#	125553
#	138468
#	151240
#	164855
#	177793
#	191118
#	205248
#	217628
#	229855
#
# Disc length: 3227
#
# Revision: 2
# Processed by: cddbd v1.5.1PL0 Copyright (c) Steve Scherf et al.
# Submitted via: CDex 1.40Beta5
# Normalized: r0:TDELIM( - ),TSWAP
#
DISCID=fd0c9914
DTITLE=John Lee Hooker and Muddy Waters - Two Stars - 20 Great Tracks on One CD
DYEAR=1994
DGENRE=Blues
TTITLE0=John Lee Hooker - Dimples
TTITLE1=John Lee Hooker - Boom Boom
TTITLE2=John Lee Hooker - Maudie
TTITLE3=John Lee Hooker - Walkin' the Boogie
TTITLE4=John Lee Hooker - I'm In the Mood
TTITLE5=John Lee Hooker - Let's Make It
TTITLE6=John Lee Hooker - Crawlin' King Snake
TTITLE7=John Lee Hooker - Onions
TTITLE8=John Lee Hooker - Big Legs, Tight Skirt
TTITLE9=John Lee Hooker - Everybody Rockin'
TTITLE10=Muddy Waters - Hoochie Coochie Man
TTITLE11=Muddy Waters - I Got My Mojo Working
TTITLE12=Muddy Waters - Baby Please Don't Go
TTITLE13=Muddy Waters - Rollin' and Tumblin'
TTITLE14=Muddy Waters - I Just Want to Make Love to You
TTITLE15=Muddy Waters - Mannish Boy
TTITLE16=Muddy Waters - Rolling Stone
TTITLE17=Muddy Waters - She's Into Something
TTITLE18=Muddy Waters - You Shook Me
TTITLE19=Muddy Waters - Walkin' Thru the Park
EXTD=YEAR: 1994 ID3G:   0
EXTT0=
EXTT1=
EXTT2=
EXTT3=
EXTT4=
EXTT5=
EXTT6=
EXTT7=
EXTT8=
EXTT9=
EXTT10=
EXTT11=
EXTT12=
EXTT13=
EXTT14=
EXTT15=
EXTT16=
EXTT17=
EXTT18=
EXTT19=
PLAYORDER=
